<?xml version="1.0" standalone="no"?>
<!DOCTYPE svg PUBLIC "-//W3C//DTD SVG 20010904//EN"
 "http://www.w3.org/TR/2001/REC-SVG-20010904/DTD/svg10.dtd">
<svg version="1.0" xmlns="http://www.w3.org/2000/svg"
 width="457.000000pt" height="457.000000pt" viewBox="0 0 457.000000 457.000000"
 preserveAspectRatio="xMidYMid meet">
<metadata>
Created by potrace 1.14, written by Peter Selinger 2001-2017
</metadata>
<g transform="translate(0.000000,457.000000) scale(0.100000,-0.100000)"
fill="#000000" stroke="none">
<path d="M2410 3651 c-37 -5 -47 -11 -59 -35 -11 -24 -11 -31 -1 -34 7 -3 -9
-12 -36 -21 -27 -10 -49 -22 -49 -28 0 -6 -11 -20 -25 -32 -21 -17 -23 -22
-10 -31 21 -14 30 -12 24 3 -6 17 21 41 36 32 7 -4 9 -18 6 -31 -5 -20 -2 -24
29 -30 19 -3 35 -10 35 -14 0 -13 -37 -40 -45 -33 -4 5 -5 2 -1 -4 4 -8 2 -13
-6 -14 -7 0 0 -5 16 -9 16 -5 43 -6 60 -3 54 11 134 52 141 73 3 11 13 20 21
20 16 0 20 75 4 85 -18 11 -10 35 14 41 32 8 39 28 18 47 -20 17 -106 26 -172
18z m16 -178 c-7 -7 -26 7 -26 19 0 6 6 6 15 -2 9 -7 13 -15 11 -17z"/>
<path d="M2867 3654 c-1 -2 -21 -4 -42 -5 -47 -3 -101 -31 -97 -50 2 -7 5 -43
7 -79 4 -103 50 -205 81 -179 9 7 26 6 58 -5 50 -17 88 -13 144 15 20 11 33
19 30 19 -4 0 4 12 17 26 25 27 35 84 14 84 -6 0 -3 7 6 16 8 9 13 25 10 35
-3 10 -7 28 -11 38 -4 16 -41 39 -52 32 -1 -1 -13 10 -25 23 -17 19 -34 25
-80 28 -31 3 -58 3 -60 2z"/>
<path d="M1786 3309 c-29 -57 -30 -59 -17 -59 21 0 71 59 71 84 0 43 -27 30
-54 -25z"/>
<path d="M2823 3243 c3 -10 11 -32 18 -50 16 -40 8 -50 -23 -29 -44 31 -128
10 -128 -33 0 -24 -25 -45 -45 -37 -19 7 -47 -3 -39 -15 9 -14 -16 -39 -38
-39 -25 0 -18 -24 8 -28 11 -2 25 -11 31 -21 11 -17 6 -19 -58 -23 -39 -3 -76
-11 -82 -18 -10 -10 -7 -12 11 -7 13 3 21 3 17 -1 -12 -13 -103 -11 -108 2
-10 25 11 94 36 122 15 16 27 37 27 46 0 25 16 22 48 -7 28 -27 42 -31 42 -15
0 6 8 10 19 10 30 0 81 21 75 31 -10 17 -64 9 -85 -12 l-21 -21 -20 20 c-14
14 -21 34 -22 66 -1 42 -3 46 -21 42 -11 -3 -25 -6 -31 -6 -6 0 -26 -13 -44
-30 -18 -16 -42 -30 -51 -30 -19 0 -32 -15 -36 -40 -1 -8 -11 -21 -22 -29 -25
-16 -27 -34 -6 -51 13 -10 12 -17 -8 -51 -21 -37 -21 -40 -5 -69 10 -17 13
-32 7 -35 -16 -11 -10 -81 9 -98 21 -19 38 -11 47 23 13 51 48 78 106 82 54 4
176 -15 192 -31 4 -4 30 -4 57 -1 28 4 50 3 50 -1 0 -10 -50 -23 -78 -20 -13
2 -39 -8 -58 -21 -33 -22 -43 -38 -25 -38 21 0 20 -31 -2 -40 -16 -6 4 -9 68
-10 50 0 109 -5 132 -9 23 -4 48 -4 55 0 7 5 9 9 3 9 -5 0 -4 5 3 12 18 18 40
-6 24 -25 -9 -10 -9 -16 0 -25 8 -8 8 -15 0 -25 -13 -15 2 -37 25 -37 29 0 -2
-28 -38 -34 -21 -3 -39 -12 -40 -19 0 -6 -4 -2 -9 10 -8 20 -12 21 -39 10 -17
-6 -31 -17 -31 -25 0 -8 -8 -12 -17 -10 -13 3 -17 12 -15 36 2 28 -1 32 -21
32 -14 0 -35 -13 -50 -30 -15 -16 -33 -30 -39 -30 -20 0 -77 -61 -71 -76 3 -8
-1 -14 -10 -14 -8 0 -18 -7 -21 -16 -9 -22 -8 -24 9 -24 17 0 20 -16 5 -25
-14 -9 -12 -52 4 -78 8 -12 17 -55 21 -96 6 -69 5 -73 -12 -66 -10 4 -25 8
-34 9 -8 0 -23 8 -32 16 -43 39 -45 40 -51 17 -6 -21 -7 -21 -21 8 -7 17 -14
25 -14 19 -1 -7 -10 -14 -21 -17 -16 -4 -18 -2 -10 13 7 13 6 20 -5 24 -8 3
-15 12 -15 21 0 19 0 19 -38 -1 -18 -8 -32 -21 -32 -28 0 -6 -5 -17 -11 -23
-9 -9 -24 -3 -60 23 -27 19 -56 34 -66 34 -19 0 336 -238 405 -271 23 -12 40
-25 36 -30 -13 -22 22 -6 84 38 72 51 228 200 257 246 10 16 25 79 36 153 18
124 19 126 62 174 53 59 82 118 108 217 25 99 40 250 27 282 -6 17 -6 27 1 29
6 2 11 10 11 18 0 10 -12 14 -40 14 -29 0 -40 -4 -40 -15 0 -14 -11 -19 -37
-16 -7 1 -13 -3 -13 -9 0 -18 -18 -11 -23 10 -3 11 -11 19 -19 18 -8 -2 -12 4
-10 15 2 11 -6 21 -21 26 -13 5 -37 23 -53 40 -32 35 -49 40 -41 14z m-509
-285 c-14 -26 -19 -29 -22 -15 -4 20 29 78 35 60 2 -6 -4 -27 -13 -45z m306
-52 c0 -11 -19 -15 -25 -6 -3 5 1 10 9 10 9 0 16 -2 16 -4z m-350 -660 c0 -3
-4 -8 -10 -11 -5 -3 -10 -1 -10 4 0 6 5 11 10 11 6 0 10 -2 10 -4z m-35 -26
c-3 -5 -12 -10 -18 -10 -7 0 -6 4 3 10 19 12 23 12 15 0z m80 -38 c-3 -3 -11
0 -18 7 -9 10 -8 11 6 5 10 -3 15 -9 12 -12z"/>
<path d="M2540 3060 c-12 -7 -10 -9 7 -7 12 0 19 5 17 9 -6 10 -6 10 -24 -2z"/>
<path d="M1800 2417 l-54 -73 -375 -14 c-207 -8 -494 -15 -638 -16 -281 -3
-308 -7 -334 -57 -12 -22 -33 -43 -72 -71 -12 -9 -17 -15 -12 -14 18 4 89 -13
127 -29 41 -18 54 -40 61 -101 6 -50 1 -48 -28 11 -35 69 -154 117 -198 79
-12 -11 -35 -15 -73 -13 -31 1 -89 -3 -130 -10 l-74 -12 0 -978 c0 -709 3
-978 11 -981 6 -2 13 -22 16 -43 4 -38 3 -39 -11 -20 -14 19 -15 17 -16 -27
l0 -48 2266 0 2266 0 -6 23 c-31 106 -81 304 -102 402 -14 66 -32 145 -39 175
-19 72 -93 385 -138 580 -20 85 -45 214 -56 285 -18 110 -27 143 -63 215 -41
79 -46 86 -103 116 -33 17 -113 51 -179 75 -116 43 -119 45 -137 86 -25 60
-68 79 -194 86 -131 8 -189 21 -312 69 -95 38 -104 43 -123 82 -34 69 -75 106
-117 106 -23 0 -23 -2 -22 -117 0 -65 4 -154 10 -198 5 -44 12 -115 15 -157 4
-43 11 -78 15 -78 5 0 9 -14 9 -31 0 -16 4 -28 8 -25 4 2 9 -3 10 -12 1 -9 5
-36 8 -58 4 -29 1 -51 -10 -73 -15 -29 -14 -35 7 -32 16 2 27 -49 42 -189 8
-80 21 -206 29 -280 8 -74 20 -196 26 -270 6 -74 22 -261 35 -415 14 -154 25
-291 24 -305 0 -23 -1 -23 -9 -5 -6 14 -9 15 -10 5 -1 -22 -29 30 -29 55 0 18
1 17 14 -5 23 -41 17 -3 -14 84 -16 45 -33 99 -39 121 -6 22 -24 85 -40 140
-17 55 -44 161 -62 235 -17 74 -57 243 -90 375 -32 132 -64 272 -70 310 -15
81 -42 141 -99 212 -22 28 -43 63 -47 77 -3 15 -10 29 -15 32 -5 3 -9 16 -9
30 0 23 2 24 57 20 35 -3 61 -10 68 -19 5 -9 16 -24 23 -34 7 -10 10 -12 6 -4
-5 9 -3 12 4 7 7 -4 12 -13 12 -19 1 -12 49 -52 55 -45 2 2 -10 22 -28 44 -18
23 -40 52 -49 65 -144 202 -193 248 -244 229 -17 -7 -30 -7 -38 -1 -13 11
-117 -90 -212 -204 -27 -32 -66 -77 -86 -99 -20 -22 -34 -43 -32 -46 3 -3 16
6 28 20 12 14 39 33 60 43 25 12 36 22 32 32 -3 8 6 26 21 41 24 24 28 25 38
10 18 -24 25 -20 25 16 0 25 3 29 12 20 7 -7 19 -12 28 -12 9 0 25 -9 34 -19
20 -22 19 -61 -5 -186 -16 -85 -2 -283 36 -510 38 -227 67 -467 61 -500 -4
-22 -3 -26 4 -15 7 12 10 8 10 -15 1 -16 3 -54 6 -84 4 -35 2 -51 -4 -47 -6 4
-12 -7 -14 -26 -3 -35 -28 35 -178 502 -40 124 -81 249 -91 278 -11 30 -28 84
-38 120 -22 79 -112 341 -182 531 -28 75 -89 216 -136 314 -95 197 -108 251
-80 320 9 20 13 37 8 37 -4 0 -31 -33 -61 -73z m-1460 -947 c-10 -23 -10 -22
-5 9 3 18 6 50 7 70 1 32 2 31 5 -9 2 -25 -1 -57 -7 -70z m3660 -539 c0 -67
-9 -79 -84 -105 -39 -14 -127 -42 -195 -61 -68 -20 -130 -39 -137 -42 -15 -6
-19 49 -8 104 5 28 11 31 82 48 43 10 89 26 103 36 41 29 61 34 153 37 79 2
86 1 86 -17z m-3793 -158 c-3 -10 -5 -4 -5 12 0 17 2 24 5 18 2 -7 2 -21 0
-30z m-10 -60 c-3 -10 -5 -4 -5 12 0 17 2 24 5 18 2 -7 2 -21 0 -30z m-6 -103
c0 -34 -2 -65 -5 -68 -4 -3 -6 28 -6 68 0 40 3 71 6 68 3 -4 5 -34 5 -68z
m-14 -147 c-3 -10 -5 -2 -5 17 0 19 2 27 5 18 2 -10 2 -26 0 -35z m-33 -356
c4 -19 3 -26 -4 -22 -5 3 -10 18 -10 32 0 32 5 28 14 -10z"/>
<path d="M2217 2325 c-17 -16 -17 -19 -3 -33 20 -20 28 -11 24 24 -3 27 -4 27
-21 9z"/>
</g>
</svg>
